<svg xmlns="http://www.w3.org/2000/svg" xmlns:xlink="http://www.w3.org/1999/xlink" version="1.1" id="Calque_1" x="0px" y="0px" viewBox="0 0 1377 762" style="enable-background:new 0 0 1377 762;" xml:space="preserve">
<style type="text/css">
	.st0{fill:none;filter:url(#Adobe_OpacityMaskFilter);stroke:#FFFFFF;stroke-width:2;}
	.st1{fill:none;stroke:#FFFFFF;stroke-width:2;}
	.st2{mask:url(#mask0_1_);}
	.st3{fill:url(#SVGID_1_);}
</style>
<defs>
	<filter id="Adobe_OpacityMaskFilter" filterUnits="userSpaceOnUse" x="-133.4" y="-290.9" width="1578.6" height="1284.2">
		<feColorMatrix type="matrix" values="1 0 0 0 0  0 1 0 0 0  0 0 1 0 0  0 0 0 1 0"/>
	</filter>
</defs>
<mask maskUnits="userSpaceOnUse" x="-133.4" y="-290.9" width="1578.6" height="1284.2" id="mask0_1_">
	<path class="st0" d="M1,321.5C1,409.7,69.9,489.9,181.7,548C293.6,606.1,448.1,642,618.9,642c170.8,0,325.4-36,437.2-94.1   c111.9-58.1,180.7-138.2,180.7-226.5c0-88.2-68.8-168.3-180.7-226.5C944.3,37,789.7,1,618.9,1C448.1,1,293.6,37,181.7,95.1   C69.9,153.2,1,233.3,1,321.5z"/>
	<path class="st1" d="M28.8,348.4c0,88.5,68.9,168.8,180.7,227.1c111.8,58.3,266.4,94.3,437.2,94.3s325.4-36.1,437.2-94.3   c111.9-58.3,180.8-138.6,180.8-227.1s-68.9-168.8-180.8-227.1C972.1,63,817.5,26.9,646.7,26.9c-170.8,0-325.4,36.1-437.2,94.3   C97.7,179.6,28.8,259.9,28.8,348.4z"/>
	<path class="st1" d="M71.4,379.9c0,88.5,68.8,168.8,180.5,227.1c111.7,58.3,266,94.3,436.5,94.3s324.9-36.1,436.5-94.3   c111.7-58.3,180.5-138.6,180.5-227.1c0-88.5-68.8-168.8-180.5-227.1c-111.7-58.3-266-94.3-436.5-94.3s-324.9,36.1-436.5,94.3   C140.2,211.1,71.4,291.4,71.4,379.9z"/>
	<path class="st1" d="M103.4,413.5c0,88.5,68.9,168.8,180.7,227.1c111.8,58.3,266.4,94.3,437.2,94.3s325.4-36.1,437.2-94.3   c111.9-58.3,180.8-138.6,180.8-227.1s-68.9-168.8-180.8-227.1C1046.7,128.1,892.1,92,721.3,92S396,128.1,284.1,186.3   C172.2,244.6,103.4,325,103.4,413.5z"/>
	<path class="st1" d="M103.4,413.5c0,88.5,68.9,168.8,180.7,227.1c111.8,58.3,266.4,94.3,437.2,94.3s325.4-36.1,437.2-94.3   c111.9-58.3,180.8-138.6,180.8-227.1s-68.9-168.8-180.8-227.1C1046.7,128.1,892.1,92,721.3,92S396,128.1,284.1,186.3   C172.2,244.6,103.4,325,103.4,413.5z"/>
	<path class="st1" d="M109.6,431.3c0,90.6,70.5,172.9,185.1,232.6c114.5,59.7,272.8,96.6,447.7,96.6c174.9,0,333.2-36.9,447.7-96.6   c114.6-59.7,185.1-142,185.1-232.6s-70.5-172.9-185.1-232.6c-114.5-59.7-272.8-96.6-447.7-96.6c-174.9,0-333.2,36.9-447.7,96.6   C180.1,258.4,109.6,340.7,109.6,431.3z"/>
</mask>
<g class="st2">
	
		<linearGradient id="SVGID_1_" gradientUnits="userSpaceOnUse" x1="547.4586" y1="-99.2361" x2="1571.8818" y2="652.5909" gradientTransform="matrix(-0.9659 0.2588 -0.2588 -0.9659 1858.3971 386.0044)">
		<stop offset="0" style="stop-color:#000000"/>
		<stop offset="0.8284" style="stop-color:#FFFFFF;stop-opacity:0"/>
	</linearGradient>
	<polygon class="st3" points="1196.6,-290.9 -133.4,65.5 115.2,993.3 1445.2,637  "/>
</g>
</svg>